<svg xmlns="http://www.w3.org/2000/svg" viewBox="0 0 202 202"><defs><style>.cls-1,.cls-2{fill:none;stroke:#fff;stroke-miterlimit:10;}.cls-1{stroke-width:5px;}.cls-2{stroke-width:7px;}</style></defs><title>Asset 13</title><g id="Layer_2" data-name="Layer 2"><g id="Layer_1-2" data-name="Layer 1"><rect class="cls-1" x="2.5" y="2.5" width="197" height="197"/><path class="cls-1" d="M42.117,93.5H46.5a0,0,0,0,1,0,0v40a0,0,0,0,1,0,0H42.117a9.617,9.617,0,0,1-9.617-9.617V103.117A9.617,9.617,0,0,1,42.117,93.5Z"/><path class="cls-1" d="M51.05319,89.5H60.5a0,0,0,0,1,0,0v48a0,0,0,0,1,0,0H51.05319A4.55319,4.55319,0,0,1,46.5,132.94681V94.05319A4.55319,4.55319,0,0,1,51.05319,89.5Z"/><path class="cls-1" d="M147,89.5C145.08628,64.03345,125.15667,44,100.83618,44S56.58608,64.03345,54.67236,89.5"/><path class="cls-1" d="M147,89.5C145.08628,64.03345,125.15667,44,100.83618,44S56.58608,64.03345,54.67236,89.5"/><path class="cls-2" d="M126.33594,52.18865a43.79867,43.79867,0,0,0-51,0"/><path class="cls-1" d="M165.117,93.5H169.5a0,0,0,0,1,0,0v40a0,0,0,0,1,0,0h-4.383a9.617,9.617,0,0,1-9.617-9.617V103.117A9.617,9.617,0,0,1,165.117,93.5Z" transform="translate(325 227) rotate(180)"/><path class="cls-1" d="M146.05319,89.5H155.5a0,0,0,0,1,0,0v48a0,0,0,0,1,0,0h-9.44681A4.55319,4.55319,0,0,1,141.5,132.94681V94.05319A4.55319,4.55319,0,0,1,146.05319,89.5Z" transform="translate(297 227) rotate(180)"/></g></g></svg>