<svg xmlns="http://www.w3.org/2000/svg" viewBox="0 0 202 202"><defs><style>.cls-1{fill:none;}.cls-1,.cls-2{stroke:#fff;stroke-miterlimit:10;stroke-width:5px;}.cls-2,.cls-3{fill:#fff;}</style></defs><title>Asset 16</title><g id="Layer_2" data-name="Layer 2"><g id="Layer_1-2" data-name="Layer 1"><rect class="cls-1" x="2.5" y="2.5" width="197" height="197"/><path class="cls-2" d="M75.5,69.5h51a0,0,0,0,1,0,0v89.70213A15.29787,15.29787,0,0,1,111.20213,174.5H90.79787A15.29787,15.29787,0,0,1,75.5,159.20213V69.5A0,0,0,0,1,75.5,69.5Z"/><path class="cls-1" d="M84.89894,33H101a0,0,0,0,1,0,0V69.5a0,0,0,0,1,0,0H82a0,0,0,0,1,0,0V35.89894A2.89894,2.89894,0,0,1,84.89894,33Z"/><rect class="cls-3" x="89.5" y="47.5" width="4" height="4" rx="0.76596"/><path class="cls-1" d="M101,33h16.09574A2.90426,2.90426,0,0,1,120,35.90426V69.5a0,0,0,0,1,0,0H101a0,0,0,0,1,0,0V33A0,0,0,0,1,101,33Z"/><rect class="cls-3" x="108.5" y="47.5" width="4" height="4" rx="0.76596"/></g></g></svg>