<svg id="Layer_1" data-name="Layer 1" xmlns="http://www.w3.org/2000/svg" viewBox="0 0 275 300"><defs><style>.cls-1{fill:#39c4e4;}.cls-2{fill:#fff;}.cls-3{fill:none;stroke:#fff;stroke-miterlimit:10;stroke-width:3.65px;}</style></defs><title>SVG</title><path class="cls-1" d="M70.16,93.78c5.38,2.88,10.77,6.52,16.72,8a63.74,63.74,0,0,0,19.89,2.32c3.26-.22,3.28-5.32,0-5.1a59.83,59.83,0,0,1-18.53-2.13C82.76,95.53,77.68,92,72.73,89.38c-2.89-1.54-5.46,2.85-2.57,4.4Z"/><path class="cls-1" d="M106.89,104.48c12.93-.86,26,1.66,39,1.61,3.27,0,3.28-5.11,0-5.1-13,.06-26.07-2.46-39-1.61-3.25.22-3.28,5.32,0,5.1Z"/><path class="cls-1" d="M146.87,105.82c11.59.21,23-1.5,34.37-3.66,5.48-1,10.69-2.69,16.08-3.91,3.78-.87,6.35-1.12,6.2-5.8-.1-3.27-5.2-3.28-5.09,0,0,.84-7.89,2.64-9.36,3-4.56,1.07-9.22,1.86-13.83,2.68a146.85,146.85,0,0,1-28.37,2.62c-3.28-.06-3.28,5,0,5.09Z"/><path class="cls-1" d="M201,95.08a15.81,15.81,0,0,0,4.24-.16,3,3,0,0,0,2.09-2.07,2.78,2.78,0,0,0,0-1.59,1.56,1.56,0,0,0-.37-.75c-.53-.74-.53-.69,0,.16a2.57,2.57,0,0,0-3.14-1.78,2.71,2.71,0,0,0-1.44,4l.25.33c.34.47.29.33-.17-.42V91.42l.14-.35.92-.91c.23-.15,1-.13.37-.17-.33,0-.67,0-1,0H201a2.55,2.55,0,1,0,0,5.09Z"/><path class="cls-2" d="M138.28,73.3c14.78.13,30.26,1,45.57,3.86A87.4,87.4,0,0,1,200,81.69c7.29,2.9,11.24,8.53,11.64,16a262.66,262.66,0,0,1,0,30.48c-.72,11.2-7.15,19-17,24.19-7.77,4.06-16.17,6-24.75,7.33a223.67,223.67,0,0,1-39.39,2.05c-12.34-.36-24.63-1.19-36.64-4.34-6.79-1.79-13.3-4.22-19-8.51a28.63,28.63,0,0,1-11.73-22.93c-.28-8.74-.31-17.5,0-26.24.32-8.9,4.23-15.25,12.83-18.43A109.8,109.8,0,0,1,98.3,76,282.7,282.7,0,0,1,138.28,73.3ZM67.29,95a19,19,0,0,0-.6,3.26c0,10-.27,20,.13,30,.26,6.23,3.19,11.58,7.88,15.84,4.84,4.41,10.64,7,16.79,8.9,10.46,3.22,21.24,4.42,32.11,4.94,15.43.73,30.85.57,46.16-1.84,8.57-1.34,17-3.37,24.62-7.7,8.66-4.9,13.69-12.22,14.05-22.22.31-8.89.1-17.79,0-26.68a30.4,30.4,0,0,0-.66-4.35c-1.74,1.16-3.14,2.25-4.68,3.08A54.92,54.92,0,0,1,189,103.12c-15.6,3.54-31.47,4.61-47.41,4.88a254.17,254.17,0,0,1-43-2.63c-6.44-1-12.81-2.51-19.14-4.11A26.81,26.81,0,0,1,67.29,95Zm71,3.74a254.14,254.14,0,0,0,33.68-1.9c7.71-1,15.38-2.16,22.73-4.82a26.25,26.25,0,0,0,5.63-2.82c1.92-1.29,1.72-2.85-.43-3.7a78.12,78.12,0,0,0-9.58-3.33c-14.26-3.64-28.84-4.82-43.49-5.25a293.21,293.21,0,0,0-33.27.8c-9.85.84-19.65,2-29.22,4.56A81.93,81.93,0,0,0,75,85.55c-1.92.76-2,2.11-.45,3.48A11.54,11.54,0,0,0,77,90.61c5.67,2.79,11.8,4,18,5A248.5,248.5,0,0,0,138.24,98.74Z"/><ellipse class="cls-2" cx="137.67" cy="81.31" rx="8.47" ry="2.22"/><ellipse class="cls-2" cx="137.67" cy="92.13" rx="8.47" ry="2.22"/><ellipse class="cls-2" cx="107.23" cy="83.9" rx="8.47" ry="2.22"/><ellipse class="cls-2" cx="167.77" cy="83.9" rx="8.47" ry="2.22"/><rect class="cls-3" x="44.31" y="19.04" width="186.38" height="186.38"/><path class="cls-2" d="M36.06,245.49l-1.4-3.1H26.22l-1.4,3.1h-4.5l8-16.46h4.45l8,16.46ZM30.46,233l-2.91,6.43h5.78Z"/><path class="cls-2" d="M60.61,245.49l.09-12.66-5.29,12.66H51.66l-5.34-12.66.09,12.66H42.49V229h6l5.11,12.08L58.63,229h5.9v16.46Z"/><path class="cls-2" d="M82.21,245.49l-1.4-3.1H72.37l-1.4,3.1h-4.5l8-16.46h4.45l7.95,16.46ZM76.61,233l-2.91,6.43h5.78Z"/><path class="cls-2" d="M87.76,245.49v-3l11.35-10.54H88.58V229h16.11v2.91L93.31,242.48h11.38v3Z"/><path class="cls-2" d="M126.82,239.19a7.9,7.9,0,0,1-3.36,5.16A11.81,11.81,0,0,1,117,246c-4.89,0-7.48-2-8.67-3.73a8.75,8.75,0,0,1-1.47-5,8,8,0,0,1,3.06-6.72,11.49,11.49,0,0,1,6.41-2,14.1,14.1,0,0,1,6.36,1.17,10,10,0,0,1,1.31.79,7.25,7.25,0,0,1,1.3,1.24,8.32,8.32,0,0,1,1.75,5.38A10.93,10.93,0,0,1,126.82,239.19Zm-5.48-5.92a6,6,0,0,0-4.62-1.79,7.11,7.11,0,0,0-2.38.53,5.6,5.6,0,0,0-3.29,5.36,6.43,6.43,0,0,0,.45,2.38,3.91,3.91,0,0,0,.63,1.12,5.6,5.6,0,0,0,.84.93,5.92,5.92,0,0,0,3.94,1.26,7.19,7.19,0,0,0,2.38-.39,5.53,5.53,0,0,0,3.52-5.39A6,6,0,0,0,121.34,233.27Z"/><path class="cls-2" d="M144,245.49,133.84,234v11.54h-3.92V229h4.13l10.09,11.49V229h3.92v16.46Z"/><path class="cls-2" d="M174.51,245.49l-1.4-3.1h-8.44l-1.4,3.1h-4.5L166.72,229h4.45l8,16.46ZM168.91,233,166,239.47h5.78Z"/><path class="cls-2" d="M181,245.49V229h4.13v13.43h9.14v3Z"/><path class="cls-2" d="M196.5,245.49V229h15.34v3H200.63v3.7h10.84v2.94H200.63v3.92h11.68v2.94Z"/><path class="cls-2" d="M228.31,245.49l-4.95-6.16-4.94,6.16h-5.24l7.53-8.63L214.13,229h5.15l4.08,5.34,4.15-5.34h5.06L226,236.86l7.51,8.63Z"/><path class="cls-2" d="M250.06,245.49l-1.39-3.1h-8.45l-1.39,3.1h-4.5L242.28,229h4.45l8,16.46ZM244.47,233l-2.92,6.43h5.79Z"/><path class="cls-2" d="M38.24,281.49V265H53.58v3H42.37v3.7H53.21v2.94H42.37v3.92H54.05v2.94Z"/><path class="cls-2" d="M75.08,277.45a6.91,6.91,0,0,1-1.7,2.15c-1.35,1.19-3.52,2.45-7.58,2.45A11.59,11.59,0,0,1,59,280.11a8.35,8.35,0,0,1-3.12-6.88,8.7,8.7,0,0,1,1.33-4.82,6.52,6.52,0,0,1,1-1.24,6.7,6.7,0,0,1,1.17-.93A11.91,11.91,0,0,1,66,264.51a12.41,12.41,0,0,1,6.65,1.8,7.94,7.94,0,0,1,2.47,2.63c.12.24.23.47.33.7l-4.5.56a5.74,5.74,0,0,0-1.66-1.75,6.08,6.08,0,0,0-3.29-.9,6.69,6.69,0,0,0-2.56.48,5.46,5.46,0,0,0-3.29,5.25,6,6,0,0,0,1,3.36,5.13,5.13,0,0,0,1,1.05A6,6,0,0,0,66.15,279a5.37,5.37,0,0,0,4.34-1.78,5.81,5.81,0,0,0,.84-1.3l4.33-.05A7,7,0,0,1,75.08,277.45Z"/><path class="cls-2" d="M91.66,281.49v-7.07H81.73v7.07H77.6V265h4.13v6.34h9.93V265h4.13v16.46Z"/><path class="cls-2" d="M118.71,275.19a7.86,7.86,0,0,1-3.36,5.16,11.79,11.79,0,0,1-6.5,1.67c-4.9,0-7.48-2-8.67-3.73a8.75,8.75,0,0,1-1.47-5,8.05,8.05,0,0,1,3.05-6.72,11.54,11.54,0,0,1,6.41-2,14.12,14.12,0,0,1,6.37,1.17,10.77,10.77,0,0,1,1.31.79,7.25,7.25,0,0,1,1.3,1.24,8.32,8.32,0,0,1,1.75,5.38A10.36,10.36,0,0,1,118.71,275.19Zm-5.48-5.92a6,6,0,0,0-4.61-1.79,7,7,0,0,0-2.38.53,5.59,5.59,0,0,0-3.29,5.36,6.36,6.36,0,0,0,.44,2.38,4.48,4.48,0,0,0,.63,1.12,6.12,6.12,0,0,0,.84.93,5.94,5.94,0,0,0,3.94,1.26,7.12,7.12,0,0,0,2.38-.39,5.53,5.53,0,0,0,3.52-5.39A5.92,5.92,0,0,0,113.23,269.27Z"/><path class="cls-2" d="M146.14,279.34a7.19,7.19,0,0,1-3.08,1.75,12.88,12.88,0,0,1-4,.4h-8.49V265h9a9.72,9.72,0,0,1,5.57,1.3,6.94,6.94,0,0,1,1.33,1.05,8.36,8.36,0,0,1,2.07,5.81A8,8,0,0,1,146.14,279.34Zm-3.2-10.47a3.9,3.9,0,0,0-1.12-.63,6.42,6.42,0,0,0-2.4-.3h-4.75v10.63h4.57a7.67,7.67,0,0,0,2.54-.32c1.44-.52,2.68-1.94,2.68-5.18C144.46,272.67,144.48,270.18,142.94,268.87Z"/><path class="cls-2" d="M170.69,275.19a7.88,7.88,0,0,1-3.35,5.16,11.83,11.83,0,0,1-6.51,1.67c-4.9,0-7.48-2-8.67-3.73a8.75,8.75,0,0,1-1.47-5,8.05,8.05,0,0,1,3.05-6.72,11.54,11.54,0,0,1,6.41-2,14.12,14.12,0,0,1,6.37,1.17,10.77,10.77,0,0,1,1.31.79,7.25,7.25,0,0,1,1.3,1.24,8.32,8.32,0,0,1,1.75,5.38A10.36,10.36,0,0,1,170.69,275.19Zm-5.48-5.92a6,6,0,0,0-4.61-1.79,7.06,7.06,0,0,0-2.38.53,5.6,5.6,0,0,0-3.29,5.36,6.58,6.58,0,0,0,.44,2.38,4.48,4.48,0,0,0,.63,1.12,6.12,6.12,0,0,0,.84.93,6,6,0,0,0,3.94,1.26,7.12,7.12,0,0,0,2.38-.39,5.53,5.53,0,0,0,3.52-5.39A5.92,5.92,0,0,0,165.21,269.27Z"/><path class="cls-2" d="M181.56,268v13.46h-4.15V268H171.3v-3h16.35v3Z"/><path class="cls-2" d="M211.53,280.11a10.15,10.15,0,0,1-6.2,1.73c-3.36,0-5.55-1.17-6.46-2.17a6,6,0,0,1-1.31-3.08l4.06-.21a3.74,3.74,0,0,0,.21.93c.39,1,1.37,1.59,3.47,1.59a6.06,6.06,0,0,0,3.13-.77,1.82,1.82,0,0,0,.7-1.4,1.54,1.54,0,0,0-.77-1.37c-.84-.49-2.78-.42-5.16-.35v-2.55c2.17,0,3.69.07,4.55-.32a1.51,1.51,0,0,0,1-1.52c0-1.16-1.08-1.82-3.15-1.82a4.34,4.34,0,0,0-2.94.82,2.15,2.15,0,0,0-.53,1.1l-4-.17c0-.23.09-.46.16-.7a4.8,4.8,0,0,1,1-1.89c1.57-1.72,4.08-2,6.25-2,2.87,0,4.64.49,5.71,1.19a3.29,3.29,0,0,1,1.61,2.92,3.1,3.1,0,0,1-2,3,6.1,6.1,0,0,1-1.79.49,7.68,7.68,0,0,1,1.89.32,3.08,3.08,0,0,1,2.21,3A4,4,0,0,1,211.53,280.11Z"/><path class="cls-2" d="M215.75,281.49v-3.34h3.83v3.34Z"/><path class="cls-2" d="M235.87,278.9a6.52,6.52,0,0,1-1.58,1.54,8,8,0,0,1-4.73,1.33,8.51,8.51,0,0,1-4.18-1c-1.65-.91-3.57-2.69-3.57-6.93a8.25,8.25,0,0,1,2.2-5.92,5.84,5.84,0,0,1,1.3-1,7.63,7.63,0,0,1,11.94,6.86A9.5,9.5,0,0,1,235.87,278.9Zm-4.43-9.47a3.35,3.35,0,0,0-2.05-.51,4.1,4.1,0,0,0-1.49.33A3.5,3.5,0,0,0,226,272a9,9,0,0,0-.19,2c0,2.36.86,4.9,3.68,4.9a3.2,3.2,0,0,0,3-1.68,5.17,5.17,0,0,0,.52-1.52,8.52,8.52,0,0,0,.18-2.05C233.12,271.18,232.45,270.06,231.44,269.43Z"/></svg>