<svg id="Layer_1" data-name="Layer 1" xmlns="http://www.w3.org/2000/svg" viewBox="0 0 275 300"><defs><style>.cls-1{fill:#fff;}.cls-2{fill:none;stroke:#fff;stroke-miterlimit:10;stroke-width:3.65px;}</style></defs><title>SVG</title><path class="cls-1" d="M176,50.91H95.34A14.13,14.13,0,0,0,81.23,65V85.18a14.11,14.11,0,0,0,6.88,12.09,14.12,14.12,0,0,0-6.88,12.1v48.38a14.13,14.13,0,0,0,14.11,14.11H176a14.12,14.12,0,0,0,14.11-14.11V109.37a14.1,14.1,0,0,0-6.88-12.1,14.08,14.08,0,0,0,6.88-12.09V65A14.12,14.12,0,0,0,176,50.91Zm10.08,106.84A10.09,10.09,0,0,1,176,167.83H95.34a10.1,10.1,0,0,1-10.08-10.08v-2.24a14.06,14.06,0,0,0,10.08,4.25h24.19v2a2,2,0,0,0,2,2h28.22a2,2,0,0,0,2-2v-2H176a14,14,0,0,0,10.08-4.25Zm-62.49,2v-4h24.19v4Zm62.49-50.39v36.28A10.08,10.08,0,0,1,176,155.73H151.78v-2a2,2,0,0,0-2-2H121.55a2,2,0,0,0-2,2v2H95.34a10.1,10.1,0,0,1-10.08-10.08V109.37A10.09,10.09,0,0,1,95.34,99.29H176A10.08,10.08,0,0,1,186.05,109.37Zm0-24.19A10.09,10.09,0,0,1,176,95.26H95.34A10.1,10.1,0,0,1,85.26,85.18V77.11A10.1,10.1,0,0,1,95.34,67h24.19v6a2,2,0,0,0,2,2h28.22a2,2,0,0,0,2-2V67H176a10.09,10.09,0,0,1,10.08,10.08Zm0-17.92A14.05,14.05,0,0,0,176,63h-26.2a2,2,0,0,0-2,2v6H123.56V65a2,2,0,0,0-2-2H95.34a14.07,14.07,0,0,0-10.08,4.26V65A10.09,10.09,0,0,1,95.34,54.94H176A10.08,10.08,0,0,1,186.05,65Z"/><path class="cls-1" d="M121.55,121.46h-4a2,2,0,0,0-2,2v2h-4v-8.06a10.08,10.08,0,0,0-20.16,0v20.16a10.09,10.09,0,0,0,10.08,10.08h8.06a2,2,0,0,0,2-2v-4h4v2a2,2,0,0,0,2,2h4a12.1,12.1,0,0,0,0-24.19Zm-14.12,6.05v16.13h-6a6.05,6.05,0,0,1-6-6V117.43a6,6,0,1,1,12.09,0Zm8.07,10.08h-4v-8.07h4Z"/><path class="cls-1" d="M169.93,107.35h-8.07a2,2,0,0,0-2,2v4h-4v-2a2,2,0,0,0-2-2h-4a12.1,12.1,0,1,0,0,24.19h4a2,2,0,0,0,2-2v-2h4v8.07a10.08,10.08,0,1,0,20.16,0V117.43A10.1,10.1,0,0,0,169.93,107.35Zm-10.08,18.14h-4v-8.06h4ZM176,137.59a6,6,0,1,1-12.09,0V111.38h6.05a6,6,0,0,1,6,6.05Z"/><rect class="cls-2" x="44.31" y="19.16" width="186.38" height="186.38"/><path class="cls-1" d="M117.45,242.83c-1.3,2-3.4,2-5,2H101.11V228.38h10.68c1.26,0,3.38,0,4.61,1.35a3.78,3.78,0,0,1,.94,2.59,3.46,3.46,0,0,1-2.73,3.59,4.07,4.07,0,0,1,3.57,4.15A5,5,0,0,1,117.45,242.83Zm-6-11.61h-6.22v3.61h5.9c.35,0,2.28.21,2.28-1.81A1.66,1.66,0,0,0,111.41,231.22Zm.47,6.48h-6.69V242h6.34c.65,0,2.54,0,2.54-2.24A1.88,1.88,0,0,0,111.88,237.7Z"/><path class="cls-1" d="M140.26,238.54a7.83,7.83,0,0,1-3.36,5.15,11.69,11.69,0,0,1-6.5,1.68c-4.9,0-7.49-2-8.68-3.73a8.77,8.77,0,0,1-1.47-5,8,8,0,0,1,3.06-6.72,11.52,11.52,0,0,1,6.41-2,14.17,14.17,0,0,1,6.37,1.17,10.87,10.87,0,0,1,1.3.79,7.31,7.31,0,0,1,1.31,1.24,8.3,8.3,0,0,1,1.75,5.38A10.36,10.36,0,0,1,140.26,238.54Zm-5.48-5.92a6,6,0,0,0-4.62-1.8,7.38,7.38,0,0,0-2.37.54,5.59,5.59,0,0,0-3.29,5.36,6.36,6.36,0,0,0,.44,2.38,4.66,4.66,0,0,0,.63,1.12,6.12,6.12,0,0,0,.84.93,5.92,5.92,0,0,0,3.94,1.26,7.19,7.19,0,0,0,2.38-.39,5.53,5.53,0,0,0,3.52-5.39A5.91,5.91,0,0,0,134.78,232.62Z"/><path class="cls-1" d="M156.42,244.84l-1.4-3.1h-8.44l-1.4,3.1h-4.5l7.95-16.46h4.46L161,244.84Zm-5.59-12.45-2.92,6.43h5.78Z"/><path class="cls-1" d="M169.23,231.38v13.46h-4.15V231.38H159v-3h16.34v3Z"/><path class="cls-1" d="M79.66,280.84l-1.39-3.1H69.82l-1.39,3.1h-4.5l7.95-16.46h4.45l8,16.46Zm-5.59-12.45-2.92,6.43h5.79Z"/><path class="cls-1" d="M86.13,280.84V264.38h4.12v16.46Z"/><path class="cls-1" d="M107.09,280.84l-4.38-6.62H98v6.62H93.89V264.38h11.33a8.33,8.33,0,0,1,2.73.3,4.58,4.58,0,0,1,3.29,4.62,5.09,5.09,0,0,1-.44,2.16c-.75,1.68-2.17,2.2-3.85,2.5l5,6.88Zm-.35-12.73a2.4,2.4,0,0,0-2.26-.84H98v4h6.59a4.94,4.94,0,0,0,1-.07,1.82,1.82,0,0,0,1.45-1.89A2.47,2.47,0,0,0,106.74,268.11Z"/><path class="cls-1" d="M129.36,278.69a7.4,7.4,0,0,1-3.08,1.75,12.84,12.84,0,0,1-4,.4h-8.49V264.38h9a9.72,9.72,0,0,1,5.57,1.3,6.55,6.55,0,0,1,1.33,1.05,8.36,8.36,0,0,1,2.07,5.81A8,8,0,0,1,129.36,278.69Zm-3.2-10.47a3.8,3.8,0,0,0-1.11-.63,6.51,6.51,0,0,0-2.41-.3h-4.75v10.63h4.57a7.67,7.67,0,0,0,2.54-.32c1.44-.52,2.68-1.94,2.68-5.18C127.68,272,127.7,269.53,126.16,268.22Z"/><path class="cls-1" d="M153.91,274.54a7.84,7.84,0,0,1-3.35,5.15,11.73,11.73,0,0,1-6.51,1.68c-4.9,0-7.48-2-8.67-3.73a8.77,8.77,0,0,1-1.47-5,8,8,0,0,1,3.05-6.72,11.55,11.55,0,0,1,6.42-2,14.1,14.1,0,0,1,6.36,1.17,10.77,10.77,0,0,1,1.31.79,7.25,7.25,0,0,1,1.3,1.24,8.3,8.3,0,0,1,1.75,5.38A10.36,10.36,0,0,1,153.91,274.54Zm-5.47-5.92a6.07,6.07,0,0,0-4.62-1.8,7.48,7.48,0,0,0-2.38.54,5.6,5.6,0,0,0-3.29,5.36,6.43,6.43,0,0,0,.45,2.38,4,4,0,0,0,.63,1.12,5.6,5.6,0,0,0,.84.93,5.91,5.91,0,0,0,3.93,1.26,7.12,7.12,0,0,0,2.38-.39,5.53,5.53,0,0,0,3.52-5.39A5.94,5.94,0,0,0,148.44,268.62Z"/><path class="cls-1" d="M172.92,271.88a3.23,3.23,0,0,1-.63,1,4.78,4.78,0,0,1-1.07.93,8.65,8.65,0,0,1-4.41.81h-5.73v6.21H157V264.38h10.17c.42,0,.83,0,1.25,0a4.88,4.88,0,0,1,4.22,2.19,5.6,5.6,0,0,1,.73,2.94A5.89,5.89,0,0,1,172.92,271.88Zm-5-4.54a2.56,2.56,0,0,0-1-.12h-5.78v4.52h5.06a5.84,5.84,0,0,0,2-.23,2,2,0,0,0,1.14-2A2.18,2.18,0,0,0,167.88,267.34Z"/><path class="cls-1" d="M175.49,280.84V264.38h15.34v3H179.62V271h10.84V274H179.62v3.92H191.3v2.94Z"/><path class="cls-1" d="M206.32,268.78a2.51,2.51,0,0,0-.38-.53c-1-1.19-2.93-1.45-4.38-1.45a9.31,9.31,0,0,0-1.38.09c-.14,0-2.3.19-2.3,1.82,0,.84.58,1.19,1.3,1.42,1.17.36,4.1.77,5.29,1a14.62,14.62,0,0,1,2.24.51,4.22,4.22,0,0,1,3.31,4.22c0,1.49-.53,3.85-3.89,4.92a13.49,13.49,0,0,1-2.73.49c-.58.05-1.16.07-1.75.07a11.29,11.29,0,0,1-5.73-1.24,7.63,7.63,0,0,1-1.14-.74,8,8,0,0,1-1.73-2,6.24,6.24,0,0,1-.4-.7l3.76-1c1,2.06,3.52,2.57,5.52,2.57a7,7,0,0,0,3.36-.75,1.73,1.73,0,0,0,.79-1.42,1.34,1.34,0,0,0-.53-1.1,8.41,8.41,0,0,0-3.08-.79c-3-.46-4.66-.7-6-1.33a4.23,4.23,0,0,1-2.59-3.91,4.33,4.33,0,0,1,2-3.73,9.64,9.64,0,0,1,5.69-1.43,11.7,11.7,0,0,1,5.46,1.05,6.59,6.59,0,0,1,2.05,1.4,6.13,6.13,0,0,1,1.12,1.49Z"/></svg>