<svg id="Layer_1" data-name="Layer 1" xmlns="http://www.w3.org/2000/svg" viewBox="0 0 275 300"><defs><style>.cls-1{fill:none;stroke:#fff;stroke-miterlimit:10;stroke-width:4.73px;}.cls-2{fill:#fff;}.cls-3{fill:#141414;}.cls-4{fill:#010101;}</style></defs><title>SVG</title><g id="Layer_1-2" data-name="Layer 1-2"><rect class="cls-1" x="44.31" y="18.09" width="186.38" height="186.38"/><path class="cls-1" d="M170.72,168.52H103.86a3.59,3.59,0,0,1-3.59-3.59l.42-106.83a3.59,3.59,0,0,1,3.59-3.59h66.86a3.59,3.59,0,0,1,3.59,3.59l-.42,106.83A3.59,3.59,0,0,1,170.72,168.52Z"/><circle class="cls-2" cx="137.5" cy="129.82" r="26.08"/><circle class="cls-2" cx="137.5" cy="73.87" r="10.1"/><circle class="cls-2" cx="137.5" cy="129.82" r="10.1"/><path class="cls-3" d="M137.5,134.81a5,5,0,1,1,5-5h0A5,5,0,0,1,137.5,134.81Z"/><path class="cls-4" d="M137.5,125.3a4.52,4.52,0,1,1-4.52,4.52h0a4.52,4.52,0,0,1,4.52-4.52m0-1a5.47,5.47,0,1,0,5.47,5.47h0a5.47,5.47,0,0,0-5.47-5.47Z"/></g><path class="cls-2" d="M44.31,239.41a4.87,4.87,0,0,1-1.26,3.26,5.83,5.83,0,0,1-4.29,1.47,12.1,12.1,0,0,1-3-.42l0-3.4a18,18,0,0,0,2.35.28,2,2,0,0,0,2-1.17,3.58,3.58,0,0,0,.14-1v-11.1h4.08v11.26A7.86,7.86,0,0,1,44.31,239.41Z"/><path class="cls-2" d="M64.3,241.76c-1.31,2-3.41,2-5,2H48V227.31H58.63c1.26,0,3.38,0,4.62,1.35a3.82,3.82,0,0,1,.93,2.59,3.45,3.45,0,0,1-2.73,3.59A4.06,4.06,0,0,1,65,239,5,5,0,0,1,64.3,241.76Zm-6-11.61H52v3.62h5.9c.35,0,2.29.2,2.29-1.82A1.67,1.67,0,0,0,58.26,230.15Zm.46,6.48H52v4.25h6.34c.66,0,2.55,0,2.55-2.24A1.88,1.88,0,0,0,58.72,236.63Z"/><path class="cls-2" d="M67.89,243.77V227.31H72v13.43h9.14v3Z"/><path class="cls-2" d="M108.07,234.81a3.43,3.43,0,0,1-.63,1,5,5,0,0,1-1.07.93,8.7,8.7,0,0,1-4.41.82H96.22v6.2h-4V227.31h10.16c.42,0,.84,0,1.26,0a4.9,4.9,0,0,1,4.22,2.19,5.72,5.72,0,0,1,.72,2.94A5.83,5.83,0,0,1,108.07,234.81Zm-5-4.54a2.59,2.59,0,0,0-1-.12H96.22v4.52h5.06a5.87,5.87,0,0,0,2-.23,2,2,0,0,0,1.14-2A2.18,2.18,0,0,0,103,230.27Z"/><path class="cls-2" d="M129.87,237.47a7.83,7.83,0,0,1-3.36,5.15,11.69,11.69,0,0,1-6.5,1.68c-4.9,0-7.49-2-8.67-3.73a8.75,8.75,0,0,1-1.47-5,8,8,0,0,1,3-6.72,11.54,11.54,0,0,1,6.41-2A14.12,14.12,0,0,1,125.7,228a10.87,10.87,0,0,1,1.3.79,7,7,0,0,1,1.31,1.24,8.3,8.3,0,0,1,1.75,5.38A10.36,10.36,0,0,1,129.87,237.47Zm-5.48-5.92a6,6,0,0,0-4.61-1.8,7.37,7.37,0,0,0-2.38.54,5.59,5.59,0,0,0-3.29,5.36,6.36,6.36,0,0,0,.44,2.38,4.66,4.66,0,0,0,.63,1.12,6.12,6.12,0,0,0,.84.93,5.94,5.94,0,0,0,3.94,1.26,7.16,7.16,0,0,0,2.38-.39,5.53,5.53,0,0,0,3.52-5.39A5.92,5.92,0,0,0,124.39,231.55Z"/><path class="cls-2" d="M146.2,243.77l-4.39-6.62H137.1v6.62H133V227.31h11.33a8.41,8.41,0,0,1,2.73.3,4.58,4.58,0,0,1,3.29,4.62,5.14,5.14,0,0,1-.45,2.16c-.74,1.68-2.16,2.2-3.84,2.5l5,6.88ZM145.85,231a2.41,2.41,0,0,0-2.26-.84H137.1v4h6.6a4.94,4.94,0,0,0,1-.07,1.81,1.81,0,0,0,1.44-1.89A2.43,2.43,0,0,0,145.85,231Z"/><path class="cls-2" d="M161.64,230.31v13.46h-4.15V230.31h-6.11v-3h16.34v3Z"/><path class="cls-2" d="M181.43,243.77l-1.4-3.1h-8.44l-1.39,3.1h-4.5l8-16.46h4.45l8,16.46Zm-5.59-12.45-2.92,6.43h5.79Z"/><path class="cls-2" d="M204.22,241.76c-1.31,2-3.41,2-5,2H187.87V227.31h10.68c1.26,0,3.38,0,4.62,1.35a3.82,3.82,0,0,1,.93,2.59,3.45,3.45,0,0,1-2.73,3.59,4.06,4.06,0,0,1,3.57,4.15A5,5,0,0,1,204.22,241.76Zm-6-11.61H192v3.62h5.9c.35,0,2.29.2,2.29-1.82A1.67,1.67,0,0,0,198.18,230.15Zm.46,6.48H192v4.25h6.35c.65,0,2.54,0,2.54-2.24A1.88,1.88,0,0,0,198.64,236.63Z"/><path class="cls-2" d="M207.81,243.77V227.31h4.13v13.43h9.14v3Z"/><path class="cls-2" d="M223.34,243.77V227.31h15.34v3H227.47V234h10.84v2.94H227.47v3.92h11.68v2.94Z"/><path class="cls-2" d="M84.61,267.71a2.51,2.51,0,0,0-.38-.53c-1-1.19-2.93-1.45-4.38-1.45a8.35,8.35,0,0,0-1.37.1c-.14,0-2.31.18-2.31,1.81,0,.84.58,1.19,1.3,1.43,1.17.35,4.11.76,5.3,1a14.72,14.72,0,0,1,2.23.51,4.22,4.22,0,0,1,3.31,4.22c0,1.49-.53,3.85-3.89,4.92a13.37,13.37,0,0,1-2.73.49c-.58.05-1.16.07-1.75.07A11.32,11.32,0,0,1,74.21,279a8.2,8.2,0,0,1-1.14-.74,8,8,0,0,1-1.73-2,6.24,6.24,0,0,1-.4-.7l3.76-1c1,2.06,3.52,2.57,5.52,2.57a7,7,0,0,0,3.36-.75,1.73,1.73,0,0,0,.79-1.42,1.31,1.31,0,0,0-.53-1.09,8.11,8.11,0,0,0-3.08-.8c-3-.46-4.66-.7-6-1.33A4.23,4.23,0,0,1,72.18,268a4.31,4.31,0,0,1,2-3.73,9.59,9.59,0,0,1,5.69-1.43,11.68,11.68,0,0,1,5.45,1,6.59,6.59,0,0,1,2,1.4,6.13,6.13,0,0,1,1.12,1.49Z"/><path class="cls-2" d="M107.09,270.81a3.43,3.43,0,0,1-.63,1,5.32,5.32,0,0,1-1.07.93,8.7,8.7,0,0,1-4.41.82H95.24v6.2h-4V263.31h10.16c.42,0,.84,0,1.26,0a4.9,4.9,0,0,1,4.22,2.19,5.72,5.72,0,0,1,.72,2.94A5.83,5.83,0,0,1,107.09,270.81Zm-5-4.54a2.59,2.59,0,0,0-1-.12H95.24v4.52h5.06a5.87,5.87,0,0,0,2-.23,2,2,0,0,0,1.14-2A2.18,2.18,0,0,0,102.05,266.27Z"/><path class="cls-2" d="M109.66,279.77V263.31H125v3H113.78V270h10.84v2.94H113.78v3.92h11.68v2.94Z"/><path class="cls-2" d="M142.09,279.77l-1.4-3.1h-8.44l-1.4,3.1h-4.5l8-16.46h4.46l8,16.46Zm-5.59-12.45-2.92,6.43h5.78Z"/><path class="cls-2" d="M161.56,279.77l-6.43-7.09-2.5,2.14v4.95h-4.1V263.31h4.1v7.2l8-7.2H166l-8,6.94,9.14,9.52Z"/><path class="cls-2" d="M168,279.77V263.31H183.3v3H172.08V270h10.85v2.94H172.08v3.92h11.68v2.94Z"/><path class="cls-2" d="M199.65,279.77l-4.39-6.62h-4.71v6.62h-4.1V263.31h11.33a8.41,8.41,0,0,1,2.73.3,4.58,4.58,0,0,1,3.29,4.62,5.14,5.14,0,0,1-.45,2.16c-.74,1.68-2.17,2.2-3.84,2.5l5,6.88ZM199.3,267a2.42,2.42,0,0,0-2.26-.84h-6.49v4h6.6a4.94,4.94,0,0,0,1-.07,1.81,1.81,0,0,0,1.44-1.89A2.43,2.43,0,0,0,199.3,267Z"/></svg>