<svg id="Layer_1" data-name="Layer 1" xmlns="http://www.w3.org/2000/svg" viewBox="0 0 275 300"><defs><style>.cls-1{fill:none;stroke:#fff;stroke-miterlimit:10;stroke-width:4.73px;}.cls-2{fill:#141414;}.cls-3{fill:#fff;}</style></defs><title>SVG</title><g id="Layer_1-2" data-name="Layer 1-2"><polygon class="cls-1" points="44.31 19.81 44.31 206.19 46.56 206.19 154.17 19.81 44.31 19.81"/><polygon class="cls-1" points="120.31 206.19 230.69 206.19 230.69 19.81 227.92 19.81 120.31 206.19"/><polygon class="cls-1" points="154.17 19.81 46.56 206.19 120.31 206.19 227.92 19.81 154.17 19.81"/><path class="cls-2" d="M118.63,192.16a17,17,0,0,1-8.46-2.27l-26-15A16.94,16.94,0,0,1,78,151.74L142,40.79a16.94,16.94,0,0,1,23.14-6.22h0l26,15a16.94,16.94,0,0,1,6.2,23.14l-64.06,111A17,17,0,0,1,118.63,192.16Z"/><path class="cls-3" d="M156.74,29.94v4.74a14.51,14.51,0,0,1,7.27,2l26,15a14.58,14.58,0,0,1,5.33,19.92l-64.06,111a14.57,14.57,0,0,1-19.9,5.35h0l-26-15A14.58,14.58,0,0,1,80,152.92L144.09,42a14.67,14.67,0,0,1,12.65-7.3V29.94m0,0A19.32,19.32,0,0,0,140,39.6l-64.06,111A19.3,19.3,0,0,0,83,176.93h0l26,15a19.31,19.31,0,0,0,26.37-7.06h0L199.43,73.92a19.31,19.31,0,0,0-7.07-26.38l-26-15a19.25,19.25,0,0,0-9.63-2.59Z"/><circle class="cls-3" cx="111.01" cy="156.52" r="14.19"/></g><path class="cls-3" d="M85.28,245.49l.1-12.66-5.3,12.66H76.33L71,232.83l.09,12.66H67.17V229h6l5.1,12.08L83.3,229h5.9v16.46Z"/><path class="cls-3" d="M92.94,245.49V229h4.12v16.46Z"/><path class="cls-3" d="M121.78,233.43a2.58,2.58,0,0,0-.37-.53c-1-1.19-2.94-1.45-4.39-1.45a8.35,8.35,0,0,0-1.37.1c-.14,0-2.31.18-2.31,1.81,0,.84.58,1.19,1.31,1.43,1.16.35,4.1.77,5.29,1a14.92,14.92,0,0,1,2.24.51,4.24,4.24,0,0,1,3.31,4.22c0,1.49-.54,3.85-3.9,4.92a13.4,13.4,0,0,1-2.72.49c-.59,0-1.17.07-1.75.07a11.46,11.46,0,0,1-5.74-1.23,10.7,10.7,0,0,1-1.14-.75,8.22,8.22,0,0,1-1.73-2,4.91,4.91,0,0,1-.39-.7l3.75-1c1,2.06,3.52,2.57,5.53,2.57a6.92,6.92,0,0,0,3.35-.75,1.73,1.73,0,0,0,.8-1.42,1.31,1.31,0,0,0-.54-1.09,8.05,8.05,0,0,0-3.08-.8c-3-.46-4.66-.7-6-1.33a4.25,4.25,0,0,1-2.59-3.91,4.33,4.33,0,0,1,2-3.73,9.62,9.62,0,0,1,5.69-1.43,11.62,11.62,0,0,1,5.45,1.05,6.48,6.48,0,0,1,2,1.4,6.13,6.13,0,0,1,1.12,1.49Z"/><path class="cls-3" d="M146.47,245.49l.1-12.66-5.29,12.66h-3.76l-5.34-12.66.1,12.66h-3.92V229h6l5.1,12.08L144.49,229h5.9v16.46Z"/><path class="cls-3" d="M168.07,245.49l-1.4-3.1h-8.44l-1.4,3.1h-4.5L160.28,229h4.46l7.95,16.46ZM162.47,233l-2.91,6.43h5.78Z"/><path class="cls-3" d="M187.73,245.49l-4.38-6.62h-4.71v6.62h-4.11V229h11.33a8.33,8.33,0,0,1,2.73.3,4.58,4.58,0,0,1,3.29,4.62,5.09,5.09,0,0,1-.44,2.16c-.75,1.68-2.17,2.2-3.85,2.5l5,6.88Zm-.35-12.73a2.4,2.4,0,0,0-2.26-.84h-6.48v4h6.59a4.31,4.31,0,0,0,1-.07,1.8,1.8,0,0,0,1.45-1.89A2.47,2.47,0,0,0,187.38,232.76Z"/><path class="cls-3" d="M203.17,232v13.46H199V232h-6.11v-3h16.34v3Z"/><path class="cls-3" d="M114.1,279.48c-1.31,2-3.41,2-5,2H97.75V265h10.68c1.26,0,3.38,0,4.62,1.35A3.82,3.82,0,0,1,114,269a3.44,3.44,0,0,1-2.73,3.59,4.07,4.07,0,0,1,3.57,4.15A5,5,0,0,1,114.1,279.48Zm-6-11.61h-6.23v3.62h5.9c.35,0,2.29.2,2.29-1.82A1.67,1.67,0,0,0,108.06,267.87Zm.46,6.48h-6.69v4.25h6.34c.66,0,2.54,0,2.54-2.24A1.88,1.88,0,0,0,108.52,274.35Z"/><path class="cls-3" d="M131.63,281.49l-1.4-3.1h-8.44l-1.4,3.1h-4.5l8-16.46h4.46l7.95,16.46ZM126,269l-2.92,6.43h5.78Z"/><path class="cls-3" d="M152.15,281.49,142,270v11.54h-3.92V265h4.13l10.09,11.49V265h3.92v16.46Z"/><path class="cls-3" d="M175.52,279.34a7.19,7.19,0,0,1-3.08,1.75,12.84,12.84,0,0,1-4,.4H160V265h9a9.7,9.7,0,0,1,5.57,1.3,6.94,6.94,0,0,1,1.33,1.05,8.37,8.37,0,0,1,2.08,5.81A8,8,0,0,1,175.52,279.34Zm-3.19-10.47a4.05,4.05,0,0,0-1.12-.63,6.49,6.49,0,0,0-2.4-.3h-4.76v10.63h4.57a7.67,7.67,0,0,0,2.54-.32c1.45-.52,2.68-1.94,2.68-5.18C173.84,272.67,173.86,270.18,172.33,268.87Z"/></svg>