<svg id="Layer_1" data-name="Layer 1" xmlns="http://www.w3.org/2000/svg" viewBox="0 0 275 275"><defs><style>.cls-1,.cls-3{fill:none;}.cls-1,.cls-2,.cls-3{stroke:#fff;stroke-miterlimit:10;}.cls-1,.cls-2{stroke-width:4.73px;}.cls-2,.cls-4{fill:#fff;}.cls-3{stroke-width:6.62px;}</style></defs><title>SVG</title><g id="Layer_1-2" data-name="Layer 1-2"><rect class="cls-1" x="44.31" y="27.93" width="186.38" height="186.38"/><path class="cls-1" d="M81.79,114h4.15v37.84H81.79a9.1,9.1,0,0,1-9.1-9.1V123.12A9.1,9.1,0,0,1,81.79,114Z"/><path class="cls-2" d="M90.25,110.24h8.93v45.41H90.25a4.3,4.3,0,0,1-4.31-4.3h0v-36.8a4.31,4.31,0,0,1,4.31-4.31Z"/><path class="cls-1" d="M181,110.24c-1.81-24.09-20.66-43-43.67-43s-41.87,19-43.68,43.05"/><path class="cls-1" d="M181,110.24c-1.81-24.09-20.66-43-43.67-43s-41.87,19-43.68,43.05"/><path class="cls-3" d="M161.47,74.94a41.44,41.44,0,0,0-48.25,0"/><path class="cls-1" d="M193.21,151.87h-4.15V114h4.15a9.09,9.09,0,0,1,9.1,9.09h0v19.65a9.09,9.09,0,0,1-9.1,9.1Z"/><path class="cls-2" d="M184.76,155.65h-8.94V110.24h8.94a4.3,4.3,0,0,1,4.3,4.31h0v36.8a4.29,4.29,0,0,1-4.3,4.3Z"/></g><path class="cls-4" d="M17.33,252.4a4.89,4.89,0,0,1-1.26,3.27,5.9,5.9,0,0,1-4.29,1.46,12,12,0,0,1-3-.42l0-3.4a18,18,0,0,0,2.35.28,2,2,0,0,0,2-1.17,3.51,3.51,0,0,0,.14-1V240.3h4.08v11.26A7.86,7.86,0,0,1,17.33,252.4Z"/><path class="cls-4" d="M37.32,254.76c-1.31,2-3.41,2-5,2H21V240.3H31.65c1.26,0,3.38,0,4.62,1.35a3.85,3.85,0,0,1,.93,2.59,3.45,3.45,0,0,1-2.73,3.59A4.07,4.07,0,0,1,38,252,5.16,5.16,0,0,1,37.32,254.76Zm-6-11.62H25.05v3.62H31c.35,0,2.29.21,2.29-1.82A1.67,1.67,0,0,0,31.28,243.14Zm.46,6.49H25.05v4.24h6.34c.66,0,2.54,0,2.54-2.24A1.87,1.87,0,0,0,31.74,249.63Z"/><path class="cls-4" d="M40.91,256.76V240.3H45v13.43h9.14v3Z"/><path class="cls-4" d="M79.24,256.76V249.7H69.31v7.06H65.19V240.3h4.12v6.34h9.93V240.3h4.13v16.46Z"/><path class="cls-4" d="M87.06,256.76V240.3H102.4v3H91.19V247H102v2.94H91.19v3.91h11.68v2.94Z"/><path class="cls-4" d="M119.49,256.76l-1.39-3.1h-8.44l-1.4,3.1h-4.5l7.95-16.46h4.45l8,16.46Zm-5.59-12.45L111,250.75h5.78Z"/><path class="cls-4" d="M141.51,254.62a7.3,7.3,0,0,1-3.08,1.74,12.54,12.54,0,0,1-4,.4h-8.49V240.3h9a9.71,9.71,0,0,1,5.57,1.31,6.55,6.55,0,0,1,1.33,1,8.33,8.33,0,0,1,2.07,5.8A8,8,0,0,1,141.51,254.62Zm-3.19-10.47a4.05,4.05,0,0,0-1.12-.63,6.51,6.51,0,0,0-2.41-.3H130v10.63h4.57a7.76,7.76,0,0,0,2.54-.33c1.44-.51,2.68-1.93,2.68-5.18C139.83,248,139.85,245.45,138.32,244.15Z"/><path class="cls-4" d="M162.73,247.81a3.33,3.33,0,0,1-.63,1,4.54,4.54,0,0,1-1.07.93,8.66,8.66,0,0,1-4.41.82h-5.73v6.2h-4.06V240.3H157c.42,0,.84,0,1.26,0a4.87,4.87,0,0,1,4.22,2.2,5.58,5.58,0,0,1,.73,2.93A6,6,0,0,1,162.73,247.81Zm-5-4.55a2.79,2.79,0,0,0-1-.12h-5.78v4.53H156a5.84,5.84,0,0,0,2-.23,2,2,0,0,0,1.14-2A2.18,2.18,0,0,0,157.69,243.26Z"/><path class="cls-4" d="M179.36,256.76V249.7h-9.93v7.06H165.3V240.3h4.13v6.34h9.93V240.3h4.13v16.46Z"/><path class="cls-4" d="M206.41,250.47a7.87,7.87,0,0,1-3.36,5.15,11.78,11.78,0,0,1-6.5,1.68c-4.9,0-7.49-2-8.68-3.73a8.81,8.81,0,0,1-1.47-5,8,8,0,0,1,3.06-6.71,11.34,11.34,0,0,1,6.41-2,14.16,14.16,0,0,1,6.37,1.16,11.34,11.34,0,0,1,1.3.8,7.62,7.62,0,0,1,1.31,1.23,8.36,8.36,0,0,1,1.74,5.39A11,11,0,0,1,206.41,250.47Zm-5.48-5.93a6,6,0,0,0-4.62-1.79,7.11,7.11,0,0,0-2.38.53,5.6,5.6,0,0,0-3.28,5.37,6.39,6.39,0,0,0,.44,2.38,4.64,4.64,0,0,0,.63,1.11,6.06,6.06,0,0,0,.84.94,5.92,5.92,0,0,0,3.94,1.26,7.28,7.28,0,0,0,2.38-.4,5.53,5.53,0,0,0,3.52-5.39A6,6,0,0,0,200.93,244.54Z"/><path class="cls-4" d="M223.6,256.76l-10.17-11.54v11.54h-3.92V240.3h4.13l10.1,11.5V240.3h3.91v16.46Z"/><path class="cls-4" d="M231.39,256.76V240.3h15.34v3H235.51V247h10.85v2.94H235.51v3.91H247.2v2.94Z"/><path class="cls-4" d="M262.21,244.71a2.36,2.36,0,0,0-.37-.54c-1-1.19-2.94-1.44-4.38-1.44a9.31,9.31,0,0,0-1.38.09c-.14,0-2.31.19-2.31,1.82,0,.84.59,1.19,1.31,1.42,1.17.35,4.1.77,5.29,1a16,16,0,0,1,2.24.51,4.23,4.23,0,0,1,3.31,4.23c0,1.49-.53,3.84-3.89,4.91a13.49,13.49,0,0,1-2.73.49c-.58.05-1.17.07-1.75.07a11.28,11.28,0,0,1-5.73-1.23,8.47,8.47,0,0,1-1.15-.75,7.88,7.88,0,0,1-1.72-2,4.49,4.49,0,0,1-.4-.7l3.76-.95c1,2,3.52,2.56,5.52,2.56a6.93,6.93,0,0,0,3.36-.74,1.75,1.75,0,0,0,.79-1.43,1.35,1.35,0,0,0-.53-1.09,8,8,0,0,0-3.08-.79c-3-.47-4.67-.7-6-1.33a4.24,4.24,0,0,1-2.59-3.92,4.35,4.35,0,0,1,2-3.73,9.71,9.71,0,0,1,5.69-1.42,11.7,11.7,0,0,1,5.46,1.05,6.41,6.41,0,0,1,2.05,1.4,6,6,0,0,1,1.12,1.49Z"/></svg>