<svg id="Layer_1" data-name="Layer 1" xmlns="http://www.w3.org/2000/svg" viewBox="0 0 275 275"><defs><style>.cls-1,.cls-3{fill:none;stroke:#fff;stroke-miterlimit:10;}.cls-1{stroke-width:4.73px;}.cls-2{fill:#fff;}.cls-3{stroke-width:2.84px;}.cls-4{fill:#141414;}.cls-5{fill:#010101;}</style></defs><title>SVG</title><g id="Layer_1-2" data-name="Layer 1-2"><rect class="cls-1" x="43.85" y="27.93" width="186.38" height="186.38"/><rect class="cls-2" x="70.81" y="150.21" width="133.4" height="24.6"/><line class="cls-3" x1="198.06" y1="154.47" x2="107.24" y2="67.43"/><rect class="cls-4" x="79.8" y="163.22" width="26.49" height="4.73"/><path class="cls-5" d="M105.82,163.7v3.78H80.27V163.7h25.55m.94-.95H79.33v5.68h27.43Z"/></g><path class="cls-2" d="M60.75,256.76h-4l-4-12-3.92,12h-4.1L40.37,240.3h4l2.47,11.24,3.78-11.24h4.29l3.71,11.24,2.49-11.24h3.94Z"/><path class="cls-2" d="M67,256.76V240.3h4.13v16.46Z"/><path class="cls-2" d="M73.7,251.17v-3h7.62v3Z"/><path class="cls-2" d="M88,243.26v4.2H98.48v2.94H88v6.36h-4.1V240.3H99.14v3Z"/><path class="cls-2" d="M100.91,256.76V240.3H105v16.46Z"/><path class="cls-2" d="M130.62,256.76l-4.39-6.62h-4.71v6.62h-4.1V240.3h11.33a8.41,8.41,0,0,1,2.73.3,4.58,4.58,0,0,1,3.29,4.62,5.17,5.17,0,0,1-.45,2.17c-.74,1.68-2.16,2.19-3.84,2.49l5,6.88ZM130.27,244a2.43,2.43,0,0,0-2.26-.84h-6.49v4h6.6a4.94,4.94,0,0,0,1-.07,1.81,1.81,0,0,0,1.44-1.89A2.46,2.46,0,0,0,130.27,244Z"/><path class="cls-2" d="M156.55,250.47a7.91,7.91,0,0,1-3.36,5.15,11.79,11.79,0,0,1-6.51,1.68c-4.89,0-7.48-2-8.67-3.73a8.81,8.81,0,0,1-1.47-5,8,8,0,0,1,3.06-6.71,11.34,11.34,0,0,1,6.41-2,14.09,14.09,0,0,1,6.36,1.16,10.44,10.44,0,0,1,1.31.8A7.62,7.62,0,0,1,155,243a8.42,8.42,0,0,1,1.74,5.39A11,11,0,0,1,156.55,250.47Zm-5.48-5.93a6,6,0,0,0-4.62-1.79,7.11,7.11,0,0,0-2.38.53,5.6,5.6,0,0,0-3.28,5.37,6.39,6.39,0,0,0,.44,2.38,4.64,4.64,0,0,0,.63,1.11,5.55,5.55,0,0,0,.84.94,5.92,5.92,0,0,0,3.94,1.26,7.28,7.28,0,0,0,2.38-.4,5.53,5.53,0,0,0,3.52-5.39A6,6,0,0,0,151.07,244.54Z"/><path class="cls-2" d="M176.51,254a6.37,6.37,0,0,1-1,1.17c-1.77,1.58-4.71,2.12-7,2.12a15.31,15.31,0,0,1-3.22-.33c-3.29-.72-4.68-2.42-5.27-3.77a7.78,7.78,0,0,1-.46-3.36V240.3h4.1V250a3.34,3.34,0,0,0,1.31,3.1,6.42,6.42,0,0,0,3.56.89,6.75,6.75,0,0,0,3.08-.66A3.29,3.29,0,0,0,173,252a2.78,2.78,0,0,0,.28-1.45V240.3h4.1v9.58A7.23,7.23,0,0,1,176.51,254Z"/><path class="cls-2" d="M189.78,243.31v13.45h-4.15V243.31h-6.11v-3h16.35v3Z"/><path class="cls-2" d="M198,256.76V240.3h15.34v3H202.16V247H213v2.94H202.16v3.91h11.69v2.94Z"/><path class="cls-2" d="M229.73,256.76l-4.39-6.62h-4.71v6.62h-4.1V240.3h11.33a8.41,8.41,0,0,1,2.73.3,4.58,4.58,0,0,1,3.29,4.62,5.17,5.17,0,0,1-.45,2.17c-.74,1.68-2.17,2.19-3.84,2.49l5,6.88ZM229.38,244a2.45,2.45,0,0,0-2.27-.84h-6.48v4h6.6a4.94,4.94,0,0,0,1-.07,1.81,1.81,0,0,0,1.44-1.89A2.46,2.46,0,0,0,229.38,244Z"/></svg>