<svg id="Layer_1" data-name="Layer 1" xmlns="http://www.w3.org/2000/svg" viewBox="0 0 275 275"><defs><style>.cls-1{fill:none;stroke:#fff;stroke-miterlimit:10;stroke-width:4.73px;}.cls-2{fill:#fff;}</style></defs><title>SVG</title><g id="Layer_1-2" data-name="Layer 1-2"><rect class="cls-1" x="43.84" y="24.93" width="186.38" height="186.38"/><path class="cls-2" d="M160.56,110.85H140.34l16.32-45.23H135.08L113.51,125.4h20.22l-15.82,43.85a.2.2,0,0,0,.36.19Z"/></g><path class="cls-2" d="M57.57,244.81a3.43,3.43,0,0,1-.63,1,5,5,0,0,1-1.07.93,8.69,8.69,0,0,1-4.41.81H45.72v6.21h-4V237.3H51.83c.42,0,.84,0,1.26,0a4.87,4.87,0,0,1,4.22,2.19,5.72,5.72,0,0,1,.72,2.94A5.83,5.83,0,0,1,57.57,244.81Zm-5-4.54a2.59,2.59,0,0,0-1-.12H45.72v4.52h5.06a5.87,5.87,0,0,0,2-.23,2,2,0,0,0,1.14-2A2.18,2.18,0,0,0,52.53,240.27Z"/><path class="cls-2" d="M79.37,247.47A7.85,7.85,0,0,1,76,252.62a11.69,11.69,0,0,1-6.5,1.68c-4.9,0-7.49-2-8.67-3.73a8.78,8.78,0,0,1-1.47-5,8,8,0,0,1,3.05-6.71,11.39,11.39,0,0,1,6.41-2A14.12,14.12,0,0,1,75.2,238a10.87,10.87,0,0,1,1.3.79A7,7,0,0,1,77.81,240a8.3,8.3,0,0,1,1.75,5.38A10.36,10.36,0,0,1,79.37,247.47Zm-5.48-5.92a6,6,0,0,0-4.61-1.8,7.37,7.37,0,0,0-2.38.54,5.59,5.59,0,0,0-3.29,5.36,6.36,6.36,0,0,0,.44,2.38,4.66,4.66,0,0,0,.63,1.12,6.12,6.12,0,0,0,.84.93,5.94,5.94,0,0,0,3.94,1.26,7,7,0,0,0,2.38-.4,5.52,5.52,0,0,0,3.52-5.38A5.91,5.91,0,0,0,73.89,241.55Z"/><path class="cls-2" d="M101,253.77H97l-4-12-3.92,12H85L80.66,237.3h4l2.47,11.24,3.78-11.24h4.29l3.7,11.24,2.5-11.24h3.94Z"/><path class="cls-2" d="M107.24,253.77V237.3h15.34v3H111.37V244h10.84v2.94H111.37v3.92h11.68v2.94Z"/><path class="cls-2" d="M138.93,253.77l-4.38-6.63h-4.71v6.63h-4.1V237.3h11.33a8.35,8.35,0,0,1,2.73.31,4.57,4.57,0,0,1,3.28,4.61,5.12,5.12,0,0,1-.44,2.17c-.75,1.68-2.17,2.19-3.85,2.5l5,6.88ZM138.58,241a2.42,2.42,0,0,0-2.26-.83h-6.48v4h6.6a4.89,4.89,0,0,0,1-.07,1.82,1.82,0,0,0,1.45-1.89A2.42,2.42,0,0,0,138.58,241Z"/><path class="cls-2" d="M170.72,251.76c-1.31,2-3.41,2-5,2H154.37V237.3h10.68c1.26,0,3.38,0,4.62,1.36a3.81,3.81,0,0,1,.93,2.58,3.46,3.46,0,0,1-2.73,3.6,4,4,0,0,1,3.57,4.15A5,5,0,0,1,170.72,251.76Zm-6-11.61h-6.23v3.61h5.9c.35,0,2.29.21,2.29-1.82A1.66,1.66,0,0,0,164.68,240.15Zm.46,6.48h-6.69v4.24h6.35c.65,0,2.54,0,2.54-2.23A1.88,1.88,0,0,0,165.14,246.63Z"/><path class="cls-2" d="M188.25,253.77l-1.4-3.11h-8.44L177,253.77h-4.5l7.95-16.47h4.45l8,16.47Zm-5.59-12.45-2.92,6.43h5.79Z"/><path class="cls-2" d="M208.78,253.77l-10.17-11.55v11.55h-3.92V237.3h4.13l10.1,11.5V237.3h3.91v16.47Z"/><path class="cls-2" d="M229.6,253.77l-6.43-7.09-2.5,2.14v5h-4.1V237.3h4.1v7.21l8-7.21H234l-8,6.95,9.14,9.52Z"/></svg>