<svg id="Layer_1" data-name="Layer 1" xmlns="http://www.w3.org/2000/svg" viewBox="0 0 275 275"><defs><style>.cls-1{fill:none;}.cls-1,.cls-2{stroke:#fff;stroke-miterlimit:10;stroke-width:4.73px;}.cls-2,.cls-3{fill:#fff;}</style></defs><title>SVG</title><g id="Layer_1-2" data-name="Layer 1-2"><rect class="cls-1" x="44.31" y="24.93" width="186.38" height="186.38"/><path class="cls-2" d="M113.37,88.32h48.26v84.87a14.47,14.47,0,0,1-14.48,14.47h-19.3a14.47,14.47,0,0,1-14.48-14.47V88.32Z"/><path class="cls-1" d="M122.27,53.79H137.5V88.32h-18V56.53a2.75,2.75,0,0,1,2.75-2.74Z"/><rect class="cls-3" x="126.62" y="67.51" width="3.78" height="3.78" rx="0.72"/><path class="cls-1" d="M137.5,53.79h15.23a2.75,2.75,0,0,1,2.75,2.75V88.32h-18V53.79Z"/><rect class="cls-3" x="144.6" y="67.51" width="3.78" height="3.78" rx="0.72"/></g><path class="cls-3" d="M82.8,244.81a3.23,3.23,0,0,1-.63,1,4.78,4.78,0,0,1-1.07.93,8.65,8.65,0,0,1-4.41.81H71v6.21H66.9V237.3H77.06c.42,0,.84,0,1.26,0a4.86,4.86,0,0,1,4.22,2.19,5.6,5.6,0,0,1,.73,2.94A5.89,5.89,0,0,1,82.8,244.81Zm-5-4.54a2.59,2.59,0,0,0-1-.12H71v4.52H76a5.84,5.84,0,0,0,2-.23,2,2,0,0,0,1.14-2A2.18,2.18,0,0,0,77.76,240.27Z"/><path class="cls-3" d="M85.37,253.77V237.3h15.34v3H89.5V244h10.84v2.94H89.5v3.92h11.68v2.94Z"/><path class="cls-3" d="M117.92,253.77l-10.16-11.55v11.55h-3.92V237.3H108l10.09,11.5V237.3H122v16.47Z"/><path class="cls-3" d="M141.29,251.62a7.4,7.4,0,0,1-3.08,1.75,12.88,12.88,0,0,1-4,.4h-8.49V237.3h9a9.73,9.73,0,0,1,5.57,1.31,6.84,6.84,0,0,1,1.33,1,8.35,8.35,0,0,1,2.07,5.8A8,8,0,0,1,141.29,251.62Zm-3.2-10.47a3.9,3.9,0,0,0-1.12-.63,6.45,6.45,0,0,0-2.4-.3h-4.75v10.63h4.57a7.49,7.49,0,0,0,2.54-.33c1.44-.51,2.68-1.93,2.68-5.17C139.61,245,139.63,242.46,138.09,241.15Z"/><path class="cls-3" d="M159.83,253.77l-4.39-6.63h-4.71v6.63h-4.1V237.3H158a8.35,8.35,0,0,1,2.73.31,4.58,4.58,0,0,1,3.29,4.61,5.17,5.17,0,0,1-.45,2.17c-.74,1.68-2.16,2.19-3.84,2.5l5,6.88ZM159.48,241a2.44,2.44,0,0,0-2.26-.83h-6.49v4h6.6a4.94,4.94,0,0,0,1-.07,1.81,1.81,0,0,0,1.44-1.89A2.49,2.49,0,0,0,159.48,241Z"/><path class="cls-3" d="M166.55,253.77V237.3h4.12v16.47Z"/><path class="cls-3" d="M183.94,253.77h-4l-7.44-16.47H177L182,249.45l4.94-12.15h4.43Z"/><path class="cls-3" d="M193.22,253.77V237.3h15.34v3H197.35V244h10.84v2.94H197.35v3.92H209v2.94Z"/></svg>