<svg xmlns="http://www.w3.org/2000/svg" viewBox="0 0 202 202"><defs><style>.cls-1{fill:none;stroke:#fff;stroke-miterlimit:10;stroke-width:5px;}.cls-2{fill:#fff;}.cls-3{fill:#121212;}</style></defs><title>Asset 17</title><g id="Layer_2" data-name="Layer 2"><g id="Layer_1-2" data-name="Layer 1"><rect class="cls-1" x="2.5" y="2.5" width="197" height="197"/><path class="cls-1" d="M136.11312,161.5H65.44224a3.79372,3.79372,0,0,1-3.79372-3.79371l.44465-112.91258A3.79371,3.79371,0,0,1,65.88688,41h70.67088a3.79372,3.79372,0,0,1,3.79372,3.79371l-.44465,112.91258A3.79371,3.79371,0,0,1,136.11312,161.5Z"/><circle class="cls-2" cx="101" cy="120.59225" r="27.56827"/><circle class="cls-2" cx="101" cy="61.45387" r="10.67159"/><circle class="cls-2" cx="101" cy="120.59225" r="10.67159"/><path class="cls-3" d="M101,125.87305a5.28077,5.28077,0,1,1,5.28027-5.28125A5.287,5.287,0,0,1,101,125.87305Z"/><path d="M101,115.812a4.78028,4.78028,0,1,1-4.78027,4.78028A4.78583,4.78583,0,0,1,101,115.812m0-1a5.78028,5.78028,0,1,0,5.78027,5.78028A5.78024,5.78024,0,0,0,101,114.812Z"/></g></g></svg>